<svg xmlns="http://www.w3.org/2000/svg" viewBox="0 0 64 64" fill="none" stroke="#333" stroke-width="2.5" stroke-linecap="round" stroke-linejoin="round">
  <!-- Body -->
  <path d="M8 38 L8 26 L14 26 L18 20 L42 20 L46 26 L56 26 L56 38" />

  <!-- Roof -->
  <path d="M18 20 L18 14 L38 14 L42 20" />

  <!-- Windows -->
  <path d="M20 20 L20 16 L28 16 L28 20" />
  <path d="M30 20 L30 16 L36 16 L38 20" />

  <!-- Front grille -->
  <line x1="8" y1="30" x2="8" y2="34" />
  <line x1="11" y1="28" x2="11" y2="36" />

  <!-- Headlight -->
  <circle cx="11" cy="32" r="2" fill="#333" />

  <!-- Door line -->
  <line x1="28" y1="20" x2="28" y2="38" />

  <!-- Wheel wells -->
  <path d="M14 38 A6 6 0 0 1 26 38" />
  <path d="M38 38 A6 6 0 0 1 50 38" />

  <!-- Wheels -->
  <circle cx="20" cy="42" r="6" fill="#333" />
  <circle cx="20" cy="42" r="2.5" fill="#fffef9" />
  <circle cx="44" cy="42" r="6" fill="#333" />
  <circle cx="44" cy="42" r="2.5" fill="#fffef9" />

  <!-- Spare tire on back -->
  <circle cx="56" cy="32" r="5" fill="none" stroke="#333" stroke-width="2" />
  <circle cx="56" cy="32" r="2" fill="#333" />

  <!-- Bumper -->
  <line x1="6" y1="38" x2="58" y2="38" />
</svg>
